<?xml version="1.0" standalone="no"?>
<!DOCTYPE svg PUBLIC "-//W3C//DTD SVG 20010904//EN"
 "http://www.w3.org/TR/2001/REC-SVG-20010904/DTD/svg10.dtd">
<svg version="1.0" xmlns="http://www.w3.org/2000/svg"
 width="512.000000pt" height="512.000000pt" viewBox="0 0 512.000000 512.000000"
 preserveAspectRatio="xMidYMid meet">
<metadata>
Created by potrace 1.14, written by Peter Selinger 2001-2017
</metadata>
<g transform="translate(0.000000,512.000000) scale(0.100000,-0.100000)"
fill="#000000" stroke="none">
<path d="M2405 5105 c-301 -65 -587 -311 -840 -720 -189 -305 -425 -863 -425
-1003 1 -93 24 -130 193 -300 l152 -153 -24 -20 c-14 -11 -133 -98 -265 -192
-248 -177 -309 -229 -351 -301 -41 -71 -384 -1011 -396 -1085 -16 -108 15
-252 74 -335 55 -79 384 -505 416 -539 33 -36 98 -77 120 -77 5 0 12 11 15 24
8 32 52 83 87 101 15 8 55 15 89 15 56 0 60 2 60 23 0 12 -16 328 -35 702 -42
824 -42 824 -11 890 29 60 76 107 136 134 44 20 60 21 1154 21 821 0 1119 -3
1148 -12 55 -16 126 -83 154 -143 31 -66 31 -77 -11 -895 -19 -371 -35 -685
-35 -697 0 -21 4 -23 60 -23 34 0 74 -7 89 -15 35 -18 79 -69 87 -101 3 -13
10 -24 15 -24 22 0 87 41 120 77 45 47 387 493 421 548 60 97 86 220 68 328
-12 76 -356 1016 -397 1087 -47 79 -113 131 -389 304 -148 93 -271 170 -274
173 -2 2 71 79 163 171 182 183 206 219 207 311 0 137 -223 672 -408 978 -114
188 -209 313 -336 439 -172 171 -341 271 -526 310 -81 17 -225 17 -305 -1z
m179 -1510 c15 -30 45 -70 68 -89 68 -58 106 -66 331 -66 l200 0 -5 -127 c-9
-209 -33 -256 -240 -459 -166 -164 -240 -204 -378 -204 -138 0 -212 40 -378
204 -207 203 -231 250 -240 459 l-5 127 200 0 c217 0 256 7 321 57 38 29 92
108 92 135 0 28 6 22 34 -37z"/>
</g>
</svg>
